<?xml version="1.0" encoding="UTF-8"?>
<svg xmlns="http://www.w3.org/2000/svg" xmlns:xlink="http://www.w3.org/1999/xlink" width="217px" height="40px" viewBox="0 0 218 40" version="1.1">
<g id="surface1">
<path style=" stroke:none;fill-rule:nonzero;fill:rgb(0%,0%,0%);fill-opacity:1;" d="M 60.441406 23.492188 C 60.277344 23.050781 60.191406 22.445312 60.191406 21.671875 C 60.191406 20.894531 60.457031 18.597656 60.984375 14.777344 C 61.511719 10.96875 61.773438 7.90625 61.773438 5.597656 C 61.773438 5.054688 61.734375 4.3125 61.65625 3.371094 C 63.019531 3.445312 63.875 3.769531 64.222656 4.339844 C 64.402344 4.671875 64.519531 4.988281 64.570312 5.285156 C 64.621094 5.582031 64.648438 6.054688 64.648438 6.699219 C 64.648438 7.332031 64.359375 9.742188 63.78125 13.925781 C 63.1875 18.105469 62.886719 21.089844 62.875 22.871094 C 62.964844 22.84375 63.125 22.832031 63.355469 22.832031 C 67.25 22.832031 70.152344 22.5625 72.054688 22.019531 C 71.925781 23.066406 71.570312 23.878906 70.992188 24.457031 C 70.402344 25.039062 69.667969 25.332031 68.792969 25.332031 C 68.535156 25.332031 67.757812 25.273438 66.460938 25.15625 C 65.148438 25.039062 63.882812 24.980469 62.660156 24.980469 C 61.441406 24.980469 60.210938 25.097656 58.976562 25.332031 C 59.222656 24.53125 59.710938 23.917969 60.441406 23.492188 Z M 78.207031 14.503906 C 77.691406 15.410156 77.292969 16.339844 77.011719 17.292969 C 76.726562 18.234375 76.585938 19.144531 76.585938 20.023438 C 76.585938 20.890625 76.777344 21.625 77.164062 22.230469 C 77.550781 22.839844 78.101562 23.140625 78.824219 23.140625 C 79.839844 23.140625 80.785156 22.585938 81.65625 21.476562 C 82.546875 20.351562 83.226562 19.003906 83.703125 17.429688 C 84.179688 15.839844 84.417969 14.375 84.417969 13.03125 C 84.417969 11.691406 84.363281 10.585938 84.261719 9.722656 C 84.6875 9.683594 84.957031 9.664062 85.070312 9.664062 C 86.601562 9.664062 87.367188 10.449219 87.367188 12.027344 C 87.367188 12.363281 87.148438 13.757812 86.710938 16.210938 C 86.285156 18.664062 86.074219 20.625 86.074219 22.097656 C 86.074219 23.566406 86.351562 24.871094 86.902344 26.007812 C 85.773438 25.777344 84.949219 25.273438 84.433594 24.496094 C 83.921875 23.734375 83.664062 22.632812 83.664062 21.1875 C 83.664062 20.929688 83.703125 20.4375 83.78125 19.714844 C 83.289062 21.429688 82.4375 22.8125 81.214844 23.859375 C 79.980469 24.917969 78.777344 25.445312 77.609375 25.445312 C 76.425781 25.445312 75.472656 24.996094 74.753906 24.089844 C 74.035156 23.199219 73.671875 21.96875 73.671875 20.390625 C 73.671875 18.804688 73.96875 17.253906 74.5625 15.746094 C 75.140625 14.234375 76.019531 12.929688 77.203125 11.832031 C 78.371094 10.722656 79.691406 10.167969 81.15625 10.167969 C 81.785156 10.167969 82.480469 10.296875 83.238281 10.554688 C 82.171875 10.824219 81.195312 11.324219 80.308594 12.046875 C 79.433594 12.769531 78.734375 13.589844 78.207031 14.503906 Z M 105.378906 6.273438 L 105.398438 6.605469 C 105.398438 7.289062 105.140625 9.535156 104.628906 13.34375 C 104.113281 17.140625 103.855469 20.316406 103.855469 22.871094 C 103.855469 24.007812 103.914062 24.890625 104.03125 25.523438 C 103.59375 25.5625 103.355469 25.582031 103.316406 25.582031 C 102.507812 25.582031 101.902344 25.394531 101.503906 25.019531 C 101.117188 24.644531 100.925781 24.039062 100.925781 23.199219 C 100.925781 22.359375 101.226562 19.792969 101.832031 15.492188 C 102.421875 11.207031 102.71875 8.148438 102.71875 6.3125 C 102.71875 4.480469 102.597656 3.277344 102.351562 2.710938 C 102.929688 2.789062 103.464844 3.015625 103.953125 3.390625 C 104.453125 3.75 104.828125 4.242188 105.070312 4.859375 C 106.449219 4.125 107.976562 3.757812 109.660156 3.757812 C 111.332031 3.757812 112.652344 4.273438 113.617188 5.304688 C 114.578125 6.351562 115.0625 7.628906 115.0625 9.140625 C 115.0625 11.078125 114.363281 12.820312 112.960938 14.371094 C 111.558594 15.90625 109.667969 16.675781 107.289062 16.675781 C 106.75 16.675781 106.253906 16.640625 105.804688 16.578125 L 105.726562 15.707031 C 106.9375 15.707031 107.992188 15.523438 108.890625 15.164062 C 109.789062 14.800781 110.472656 14.324219 110.933594 13.730469 C 111.847656 12.570312 112.304688 11.210938 112.304688 9.664062 C 112.304688 8.539062 111.949219 7.605469 111.242188 6.855469 C 110.535156 6.105469 109.507812 5.730469 108.15625 5.730469 C 107.347656 5.730469 106.421875 5.914062 105.378906 6.273438 Z M 121.039062 14.503906 C 120.515625 15.410156 120.109375 16.339844 119.824219 17.292969 C 119.554688 18.234375 119.421875 19.144531 119.421875 20.023438 C 119.421875 20.890625 119.613281 21.625 120 22.230469 C 120.386719 22.839844 120.9375 23.140625 121.65625 23.140625 C 122.660156 23.140625 123.605469 22.585938 124.492188 21.476562 C 125.367188 20.351562 126.042969 19.003906 126.519531 17.429688 C 127.007812 15.839844 127.25 14.375 127.25 13.03125 C 127.25 11.691406 127.191406 10.585938 127.078125 9.722656 C 127.515625 9.683594 127.785156 9.664062 127.886719 9.664062 C 129.417969 9.664062 130.183594 10.449219 130.183594 12.027344 C 130.183594 12.363281 129.96875 13.757812 129.546875 16.210938 C 129.109375 18.664062 128.890625 20.625 128.890625 22.097656 C 128.890625 23.566406 129.167969 24.871094 129.71875 26.007812 C 128.589844 25.777344 127.765625 25.273438 127.25 24.496094 C 126.738281 23.734375 126.480469 22.632812 126.480469 21.1875 C 126.480469 20.929688 126.519531 20.4375 126.59375 19.714844 C 126.105469 21.429688 125.25 22.8125 124.03125 23.859375 C 122.808594 24.917969 121.605469 25.445312 120.421875 25.445312 C 119.242188 25.445312 118.289062 24.996094 117.570312 24.089844 C 116.847656 23.199219 116.488281 21.96875 116.488281 20.390625 C 116.488281 18.804688 116.785156 17.253906 117.375 15.746094 C 117.957031 14.234375 118.835938 12.929688 120.019531 11.832031 C 121.203125 10.722656 122.519531 10.167969 123.972656 10.167969 C 124.601562 10.167969 125.296875 10.296875 126.054688 10.554688 C 124.988281 10.824219 124.015625 11.324219 123.144531 12.046875 C 122.257812 12.769531 121.554688 13.589844 121.039062 14.503906 Z M 146.867188 13.324219 C 146.867188 14.148438 146.691406 15.617188 146.34375 17.71875 C 145.996094 19.824219 145.824219 21.359375 145.824219 22.328125 C 145.824219 23.285156 145.941406 23.976562 146.171875 24.402344 C 146.402344 24.828125 146.800781 25.1875 147.367188 25.484375 C 147.121094 25.511719 146.789062 25.523438 146.363281 25.523438 C 145.140625 25.523438 144.273438 25.292969 143.761719 24.828125 C 143.246094 24.363281 142.988281 23.535156 142.988281 22.347656 C 142.988281 21.675781 143.167969 20.328125 143.527344 18.300781 C 143.890625 16.261719 144.070312 14.761719 144.070312 13.808594 C 144.070312 12.621094 143.707031 12.027344 142.988281 12.027344 C 141.832031 12.027344 140.636719 13.046875 139.402344 15.085938 C 138.167969 17.125 137.550781 19.585938 137.550781 22.464844 C 137.550781 23.601562 137.609375 24.484375 137.722656 25.117188 C 137.246094 25.15625 136.964844 25.175781 136.875 25.175781 C 135.292969 25.175781 134.503906 24.394531 134.503906 22.832031 C 134.503906 22.472656 134.695312 21.082031 135.082031 18.667969 C 135.453125 16.242188 135.640625 14.3125 135.640625 12.878906 C 135.640625 11.433594 135.488281 10.109375 135.179688 8.910156 C 136.246094 9.320312 136.992188 9.910156 137.414062 10.671875 C 137.839844 11.445312 138.050781 12.324219 138.050781 13.304688 C 138.050781 14.285156 137.941406 15.429688 137.722656 16.730469 C 138.316406 14.691406 139.246094 12.976562 140.519531 11.582031 C 141.78125 10.171875 142.964844 9.46875 144.070312 9.46875 C 145.933594 9.46875 146.867188 10.753906 146.867188 13.324219 Z M 159.804688 10.265625 C 159.804688 11.011719 159.664062 11.535156 159.382812 11.832031 C 159.085938 12.117188 158.664062 12.257812 158.109375 12.257812 L 156.160156 12.257812 C 156.085938 12.734375 155.898438 13.859375 155.601562 15.628906 C 154.984375 18.984375 154.675781 21.523438 154.675781 23.238281 C 154.675781 24.957031 154.804688 26.097656 155.0625 26.667969 C 154.035156 26.28125 153.300781 25.703125 152.863281 24.941406 C 152.4375 24.167969 152.226562 23.234375 152.226562 22.136719 C 152.226562 21.023438 152.292969 19.980469 152.417969 18.996094 C 152.5625 18.015625 152.753906 16.867188 153 15.550781 C 153.253906 14.222656 153.4375 13.164062 153.539062 12.375 C 152.511719 12.515625 151.5 12.808594 150.511719 13.246094 C 150.484375 12.949219 150.472656 12.683594 150.472656 12.453125 C 150.472656 11.585938 150.753906 11.007812 151.320312 10.710938 C 151.898438 10.414062 152.726562 10.265625 153.808594 10.265625 C 153.9375 8.921875 154 7.921875 154 7.261719 C 154 6.605469 153.996094 6.074219 153.980469 5.675781 C 153.980469 5.273438 153.980469 4.976562 153.980469 4.785156 C 154.804688 4.914062 155.441406 5.28125 155.890625 5.886719 C 156.339844 6.480469 156.566406 7.308594 156.566406 8.367188 C 156.566406 8.910156 156.519531 9.566406 156.429688 10.339844 C 158 10.339844 159.105469 10.078125 159.75 9.546875 C 159.789062 9.804688 159.804688 10.042969 159.804688 10.265625 Z M 164.878906 16.730469 C 165.46875 14.691406 166.382812 12.976562 167.617188 11.582031 C 168.851562 10.171875 170.007812 9.46875 171.089844 9.46875 C 172.167969 9.46875 172.933594 9.800781 173.382812 10.457031 C 173.835938 11.117188 174.058594 12.011719 174.058594 13.148438 C 174.058594 14.273438 173.886719 15.855469 173.539062 17.894531 C 173.191406 19.945312 173.019531 21.4375 173.019531 22.367188 C 173.019531 23.296875 173.132812 23.976562 173.363281 24.402344 C 173.597656 24.828125 173.988281 25.1875 174.542969 25.484375 C 174.308594 25.511719 173.980469 25.523438 173.558594 25.523438 C 172.402344 25.523438 171.546875 25.285156 170.992188 24.808594 C 170.453125 24.328125 170.183594 23.511719 170.183594 22.347656 C 170.183594 21.675781 170.363281 20.328125 170.722656 18.300781 C 171.082031 16.261719 171.261719 14.761719 171.261719 13.808594 C 171.261719 12.621094 170.84375 12.027344 170.007812 12.027344 C 169.519531 12.027344 168.980469 12.285156 168.390625 12.800781 C 167.796875 13.304688 167.226562 13.996094 166.671875 14.871094 C 166.132812 15.75 165.675781 16.867188 165.304688 18.222656 C 164.929688 19.566406 164.742188 20.890625 164.742188 22.191406 C 164.742188 23.511719 164.800781 24.484375 164.917969 25.117188 C 164.480469 25.15625 164.234375 25.175781 164.183594 25.175781 C 163.335938 25.175781 162.710938 24.996094 162.3125 24.632812 C 161.902344 24.273438 161.695312 23.703125 161.695312 22.929688 C 161.695312 22.167969 161.855469 20.6875 162.179688 18.496094 C 163.128906 11.769531 163.605469 6.660156 163.605469 3.175781 C 163.605469 1.601562 163.503906 0.542969 163.296875 0 C 164.339844 0.386719 165.070312 0.949219 165.496094 1.683594 C 165.921875 2.433594 166.132812 3.453125 166.132812 4.746094 C 166.132812 5.648438 165.953125 7.546875 165.59375 10.4375 C 165.246094 13.332031 165.007812 15.429688 164.878906 16.730469 Z M 185.304688 10.882812 C 184.222656 10.882812 183.308594 11.503906 182.566406 12.742188 C 181.804688 13.996094 181.304688 15.460938 181.058594 17.140625 L 181.8125 17.140625 C 182.765625 17.140625 183.59375 17.003906 184.300781 16.730469 C 184.996094 16.460938 185.535156 16.113281 185.921875 15.6875 C 186.640625 14.847656 187 13.90625 187 12.859375 C 187 12.265625 186.859375 11.789062 186.574219 11.425781 C 186.292969 11.0625 185.867188 10.882812 185.304688 10.882812 Z M 189.101562 21.863281 C 188.28125 23.21875 187.375 24.167969 186.382812 24.710938 C 185.394531 25.253906 184.242188 25.523438 182.929688 25.523438 C 181.632812 25.523438 180.496094 24.941406 179.515625 23.78125 C 178.539062 22.632812 178.050781 21.003906 178.050781 18.902344 C 178.050781 16.511719 178.695312 14.382812 179.980469 12.511719 C 180.609375 11.605469 181.433594 10.871094 182.449219 10.300781 C 183.464844 9.746094 184.582031 9.46875 185.804688 9.46875 C 188.503906 9.46875 189.855469 10.78125 189.855469 13.402344 C 189.855469 14.976562 189.25 16.210938 188.042969 17.101562 C 186.820312 17.992188 185.414062 18.4375 183.816406 18.4375 C 182.75 18.4375 181.792969 18.339844 180.945312 18.144531 C 180.929688 18.328125 180.925781 18.605469 180.925781 18.976562 C 180.925781 22.179688 181.871094 23.78125 183.761719 23.78125 C 185.535156 23.78125 186.980469 22.898438 188.101562 21.128906 C 188.769531 21.21875 189.101562 21.464844 189.101562 21.863281 Z M 188.5625 7.4375 C 188.550781 7.628906 188.453125 7.816406 188.273438 8 C 188.105469 8.164062 187.914062 8.277344 187.695312 8.328125 C 187.050781 7.515625 186.222656 6.714844 185.207031 5.925781 C 184.191406 5.125 183.15625 4.5625 182.101562 4.242188 C 182.140625 3.296875 182.578125 2.554688 183.414062 2.015625 C 184.363281 2.386719 185.347656 3.136719 186.363281 4.261719 C 187.378906 5.371094 188.113281 6.429688 188.5625 7.4375 Z M 196.527344 16.304688 C 197.171875 13.957031 197.949219 12.226562 198.863281 11.117188 C 199.773438 10.003906 200.621094 9.449219 201.40625 9.449219 C 202.191406 9.449219 202.777344 9.742188 203.164062 10.320312 C 203.5625 10.914062 203.761719 11.664062 203.761719 12.570312 C 203.761719 13.472656 203.527344 14.253906 203.066406 14.910156 C 202.589844 15.570312 201.902344 15.898438 201.003906 15.898438 C 200.71875 15.898438 200.496094 15.878906 200.328125 15.839844 C 200.945312 14.949219 201.253906 14.046875 201.253906 13.128906 C 201.253906 12.484375 200.988281 12.160156 200.460938 12.160156 C 200.050781 12.160156 199.613281 12.402344 199.152344 12.878906 C 198.675781 13.367188 198.226562 14.046875 197.800781 14.910156 C 197.363281 15.789062 197.003906 16.917969 196.722656 18.300781 C 196.425781 19.695312 196.277344 21.199219 196.277344 22.8125 C 196.277344 22.992188 196.320312 23.761719 196.414062 25.117188 C 195.949219 25.15625 195.679688 25.175781 195.601562 25.175781 C 194.019531 25.175781 193.230469 24.394531 193.230469 22.832031 C 193.230469 22.472656 193.421875 21.082031 193.808594 18.667969 C 194.179688 16.242188 194.367188 14.3125 194.367188 12.878906 C 194.367188 11.433594 194.214844 10.109375 193.90625 8.910156 C 194.972656 9.320312 195.71875 9.910156 196.140625 10.671875 C 196.566406 11.445312 196.777344 12.34375 196.777344 13.363281 C 196.777344 14.382812 196.695312 15.363281 196.527344 16.304688 Z M 212.4375 10.882812 C 211.359375 10.882812 210.441406 11.503906 209.679688 12.742188 C 208.933594 13.996094 208.441406 15.460938 208.195312 17.140625 L 208.949219 17.140625 C 209.898438 17.140625 210.730469 17.003906 211.4375 16.730469 C 212.128906 16.460938 212.671875 16.113281 213.054688 15.6875 C 213.777344 14.847656 214.136719 13.90625 214.136719 12.859375 C 214.136719 12.265625 213.996094 11.789062 213.710938 11.425781 C 213.429688 11.0625 213.003906 10.882812 212.4375 10.882812 Z M 216.238281 21.863281 C 215.414062 23.21875 214.507812 24.167969 213.519531 24.710938 C 212.527344 25.253906 211.378906 25.523438 210.066406 25.523438 C 208.769531 25.523438 207.628906 24.941406 206.652344 23.78125 C 205.675781 22.632812 205.1875 21.003906 205.1875 18.902344 C 205.1875 16.511719 205.832031 14.382812 207.117188 12.511719 C 207.746094 11.605469 208.570312 10.871094 209.585938 10.300781 C 210.601562 9.746094 211.71875 9.46875 212.941406 9.46875 C 215.640625 9.46875 216.992188 10.78125 216.992188 13.402344 C 216.992188 14.976562 216.386719 16.210938 215.179688 17.101562 C 213.957031 17.992188 212.546875 18.4375 210.953125 18.4375 C 209.886719 18.4375 208.929688 18.339844 208.082031 18.144531 C 208.066406 18.328125 208.0625 18.605469 208.0625 18.976562 C 208.0625 22.179688 209.007812 23.78125 210.894531 23.78125 C 212.671875 23.78125 214.117188 22.898438 215.234375 21.128906 C 215.90625 21.21875 216.238281 21.464844 216.238281 21.863281 Z M 216.238281 21.863281 "/>
<path style=" stroke:none;fill-rule:nonzero;fill:rgb(11.372549%,11.372549%,10.588235%);fill-opacity:1;" d="M 22.632812 18.246094 L 22.632812 18.207031 C 22.226562 17.484375 21.546875 16.957031 20.75 16.742188 L 20.675781 16.742188 C 20.238281 16.609375 19.789062 16.527344 19.335938 16.492188 C 18.105469 16.324219 16.929688 15.886719 15.890625 15.210938 C 15.707031 15.101562 15.472656 15.152344 15.351562 15.332031 C 15.230469 15.507812 15.269531 15.746094 15.441406 15.878906 C 15.785156 16.101562 16.140625 16.300781 16.511719 16.476562 C 16.511719 16.527344 16.464844 16.582031 16.449219 16.640625 C 15.957031 18.371094 16.949219 20.175781 18.671875 20.679688 C 18.980469 20.769531 19.300781 20.816406 19.625 20.816406 C 20.605469 20.820312 21.535156 20.367188 22.136719 19.589844 C 22.183594 20.128906 22.148438 20.671875 22.039062 21.203125 C 21.996094 21.308594 22 21.425781 22.046875 21.527344 C 22.097656 21.628906 22.183594 21.707031 22.292969 21.742188 C 22.335938 21.746094 22.378906 21.746094 22.421875 21.742188 C 22.59375 21.738281 22.746094 21.628906 22.800781 21.464844 C 22.972656 20.746094 23.015625 19.996094 22.925781 19.261719 C 22.894531 18.90625 22.796875 18.558594 22.632812 18.246094 Z M 20.242188 17.441406 C 20.257812 17.535156 20.257812 17.628906 20.242188 17.722656 C 20.136719 18.097656 19.746094 18.316406 19.371094 18.210938 C 19 18.105469 18.78125 17.714844 18.886719 17.339844 C 18.898438 17.308594 18.914062 17.277344 18.933594 17.25 L 19.253906 17.285156 C 19.589844 17.3125 19.925781 17.367188 20.25 17.449219 Z M 20.742188 19.730469 C 20.167969 20.027344 19.5 20.085938 18.878906 19.902344 C 17.578125 19.523438 16.824219 18.160156 17.199219 16.851562 L 17.199219 16.785156 C 17.496094 16.902344 17.800781 17 18.109375 17.082031 L 18.109375 17.113281 C 17.9375 17.660156 18.085938 18.257812 18.496094 18.65625 C 18.90625 19.050781 19.507812 19.179688 20.042969 18.988281 C 20.582031 18.796875 20.960938 18.3125 21.027344 17.742188 C 21.347656 17.90625 21.621094 18.152344 21.820312 18.453125 C 21.636719 18.996094 21.257812 19.453125 20.753906 19.730469 Z M 35.261719 16.628906 C 35.261719 16.570312 35.21875 16.523438 35.195312 16.464844 C 35.566406 16.289062 35.921875 16.089844 36.265625 15.867188 C 36.4375 15.738281 36.476562 15.496094 36.355469 15.320312 C 36.238281 15.140625 36 15.089844 35.816406 15.199219 C 34.777344 15.878906 33.601562 16.316406 32.371094 16.480469 C 31.914062 16.515625 31.460938 16.597656 31.023438 16.734375 L 30.957031 16.734375 C 30.152344 16.945312 29.46875 17.476562 29.0625 18.207031 L 29.0625 18.234375 C 28.894531 18.558594 28.796875 18.917969 28.773438 19.28125 C 28.683594 20.019531 28.726562 20.765625 28.894531 21.488281 C 28.953125 21.652344 29.105469 21.761719 29.277344 21.761719 C 29.410156 21.765625 29.53125 21.703125 29.609375 21.59375 C 29.6875 21.488281 29.707031 21.347656 29.664062 21.222656 C 29.550781 20.695312 29.515625 20.148438 29.5625 19.609375 C 30.164062 20.390625 31.089844 20.84375 32.074219 20.835938 C 32.394531 20.835938 32.714844 20.792969 33.027344 20.703125 C 33.863281 20.460938 34.566406 19.898438 34.988281 19.132812 C 35.40625 18.367188 35.503906 17.46875 35.261719 16.628906 Z M 32.421875 17.285156 L 32.742188 17.25 C 32.761719 17.277344 32.777344 17.308594 32.789062 17.339844 C 32.894531 17.710938 32.679688 18.09375 32.3125 18.203125 C 32.089844 18.269531 31.84375 18.21875 31.667969 18.066406 C 31.488281 17.910156 31.40625 17.675781 31.441406 17.441406 C 31.765625 17.363281 32.09375 17.308594 32.425781 17.285156 Z M 32.8125 19.902344 C 32.191406 20.085938 31.523438 20.027344 30.949219 19.730469 C 30.441406 19.453125 30.0625 18.996094 29.875 18.449219 C 30.074219 18.148438 30.347656 17.90625 30.667969 17.742188 C 30.675781 17.8125 30.691406 17.878906 30.707031 17.941406 C 30.898438 18.582031 31.484375 19.019531 32.148438 19.019531 C 32.605469 19.007812 33.035156 18.789062 33.3125 18.421875 C 33.589844 18.050781 33.683594 17.578125 33.566406 17.132812 L 33.566406 17.097656 C 33.875 17.015625 34.179688 16.917969 34.476562 16.804688 L 34.476562 16.867188 C 34.839844 18.164062 34.097656 19.515625 32.8125 19.902344 Z M 32.8125 19.902344 "/>
<path style=" stroke:none;fill-rule:nonzero;fill:rgb(11.372549%,11.372549%,10.588235%);fill-opacity:1;" d="M 23.882812 17.609375 C 23.796875 16.398438 22.8125 15.628906 21.125 15.5 C 20.234375 15.382812 19.378906 15.074219 18.617188 14.59375 C 18.433594 14.46875 18.183594 14.519531 18.058594 14.707031 C 17.9375 14.890625 17.988281 15.140625 18.171875 15.265625 C 19.046875 15.824219 20.035156 16.179688 21.066406 16.300781 C 21.789062 16.355469 23.007812 16.609375 23.085938 17.664062 C 23.097656 17.875 23.273438 18.039062 23.488281 18.039062 L 23.511719 18.039062 C 23.734375 18.023438 23.898438 17.832031 23.882812 17.609375 Z M 30.835938 16.300781 C 31.863281 16.179688 32.851562 15.824219 33.726562 15.265625 C 33.914062 15.140625 33.964844 14.890625 33.839844 14.707031 C 33.71875 14.519531 33.46875 14.46875 33.285156 14.59375 C 32.523438 15.082031 31.664062 15.394531 30.769531 15.515625 C 29.105469 15.644531 28.09375 16.414062 28.011719 17.625 C 28.003906 17.734375 28.039062 17.839844 28.109375 17.917969 C 28.179688 18 28.28125 18.050781 28.386719 18.054688 L 28.414062 18.054688 C 28.625 18.054688 28.800781 17.890625 28.816406 17.679688 C 28.890625 16.59375 30.132812 16.363281 30.835938 16.300781 Z M 17.621094 13.5 C 17.710938 13.617188 17.855469 13.675781 18 13.652344 C 18.144531 13.628906 18.265625 13.53125 18.316406 13.394531 C 18.367188 13.253906 18.339844 13.101562 18.242188 12.988281 L 16.535156 10.882812 C 16.445312 10.765625 16.300781 10.707031 16.15625 10.730469 C 16.011719 10.75 15.890625 10.851562 15.839844 10.988281 C 15.789062 11.125 15.816406 11.28125 15.914062 11.390625 Z M 19.421875 12.332031 C 19.480469 12.488281 19.628906 12.589844 19.796875 12.589844 C 19.925781 12.589844 20.046875 12.527344 20.121094 12.417969 C 20.195312 12.3125 20.214844 12.175781 20.171875 12.054688 L 19.414062 10.074219 C 19.335938 9.867188 19.101562 9.761719 18.894531 9.84375 C 18.6875 9.921875 18.585938 10.15625 18.664062 10.363281 Z M 21.5625 12.390625 C 21.773438 12.394531 21.949219 12.230469 21.964844 12.019531 L 22.097656 10.3125 C 22.109375 10.203125 22.074219 10.097656 22.003906 10.015625 C 21.933594 9.933594 21.835938 9.882812 21.730469 9.875 C 21.621094 9.863281 21.515625 9.898438 21.433594 9.96875 C 21.351562 10.039062 21.300781 10.140625 21.296875 10.246094 L 21.160156 11.960938 C 21.152344 12.074219 21.191406 12.183594 21.269531 12.265625 C 21.34375 12.347656 21.453125 12.394531 21.5625 12.390625 Z M 21.5625 12.390625 "/>
<path style=" stroke:none;fill-rule:nonzero;fill:rgb(11.372549%,11.372549%,10.588235%);fill-opacity:1;" d="M 50.117188 26.273438 C 48.03125 25.609375 43.113281 25.667969 39.117188 25.847656 C 41.792969 22.457031 41.792969 19.175781 41.316406 17.632812 C 40.953125 16.476562 40.390625 13.558594 41.109375 12.425781 C 41.242188 12.195312 41.476562 12.039062 41.742188 12.011719 C 42.683594 11.886719 42.855469 10.902344 42.988281 10.117188 C 43.027344 9.835938 43.089844 9.558594 43.175781 9.289062 C 43.339844 9 43.5625 8.746094 43.832031 8.550781 C 44.582031 7.949219 45.167969 7.167969 45.535156 6.277344 C 46.386719 4.175781 45.246094 3.136719 45.195312 3.09375 C 45.152344 3.058594 45.101562 3.035156 45.046875 3.023438 L 44.972656 3.023438 C 44.09375 2.792969 43.164062 2.933594 42.394531 3.414062 C 42.03125 3.59375 41.582031 3.808594 40.917969 4.089844 C 39.484375 4.8125 37.753906 4.523438 36.632812 3.378906 C 34.21875 1.054688 32.523438 0.382812 25.875 0.382812 C 19.226562 0.382812 17.550781 1.058594 15.164062 3.378906 C 14.039062 4.523438 12.308594 4.8125 10.878906 4.089844 C 10.378906 3.878906 9.886719 3.652344 9.398438 3.414062 C 8.628906 2.933594 7.699219 2.792969 6.824219 3.023438 L 6.746094 3.023438 C 6.691406 3.035156 6.640625 3.058594 6.597656 3.09375 C 6.550781 3.136719 5.410156 4.167969 6.261719 6.277344 C 6.625 7.167969 7.214844 7.949219 7.964844 8.550781 C 8.230469 8.746094 8.453125 9 8.617188 9.289062 C 8.671875 9.570312 8.703125 9.851562 8.707031 10.140625 C 8.839844 10.929688 9.007812 11.910156 9.957031 12.03125 C 10.21875 12.0625 10.453125 12.214844 10.589844 12.445312 C 11.304688 13.582031 10.742188 16.496094 10.378906 17.652344 C 9.890625 19.195312 9.914062 22.492188 12.582031 25.871094 C 8.585938 25.6875 3.667969 25.628906 1.578125 26.296875 C 1.367188 26.363281 1.25 26.589844 1.320312 26.804688 C 1.386719 27.015625 1.613281 27.132812 1.824219 27.066406 C 4.015625 26.367188 9.859375 26.527344 13.167969 26.710938 L 13.304688 26.710938 L 13.652344 27.082031 C 9.539062 27.140625 6.746094 27.425781 5.347656 27.929688 C 5.210938 27.976562 5.109375 28.09375 5.082031 28.238281 C 5.054688 28.382812 5.105469 28.53125 5.21875 28.625 C 5.332031 28.71875 5.488281 28.742188 5.621094 28.6875 C 7.003906 28.1875 10.070312 27.910156 14.492188 27.878906 C 14.679688 28.039062 14.875 28.195312 15.066406 28.351562 C 11.601562 28.542969 5.960938 29 3.816406 29.964844 C 3.632812 30.0625 3.554688 30.289062 3.636719 30.480469 C 3.722656 30.675781 3.941406 30.769531 4.140625 30.699219 C 6.371094 29.714844 12.804688 29.28125 16.039062 29.113281 L 16.578125 29.5 L 16.628906 29.539062 C 13.261719 29.867188 10.957031 30.292969 9.777344 30.808594 C 9.59375 30.90625 9.515625 31.132812 9.601562 31.328125 C 9.683594 31.519531 9.902344 31.613281 10.101562 31.546875 C 11.210938 31.054688 13.554688 30.636719 16.914062 30.320312 C 16.898438 31.3125 17.019531 32.304688 17.277344 33.265625 C 18.152344 35.589844 19.347656 36.160156 20.738281 36.277344 C 20.9375 36.65625 21.214844 36.988281 21.550781 37.25 C 20.804688 37.933594 20.1875 38.75 19.738281 39.65625 C 19.65625 39.863281 19.761719 40.097656 19.96875 40.179688 C 20.175781 40.257812 20.40625 40.15625 20.488281 39.945312 C 20.632812 39.570312 21.066406 38.871094 22.25 37.691406 C 22.589844 37.867188 22.949219 38.007812 23.320312 38.113281 C 23.058594 38.699219 22.894531 39.320312 22.828125 39.957031 C 22.820312 40.0625 22.859375 40.167969 22.929688 40.25 C 23 40.328125 23.101562 40.375 23.207031 40.382812 C 23.421875 40.382812 23.597656 40.214844 23.609375 40 C 23.679688 39.410156 23.84375 38.832031 24.097656 38.296875 C 25.257812 38.488281 26.441406 38.488281 27.601562 38.296875 C 27.851562 38.835938 28.015625 39.410156 28.085938 40 C 28.097656 40.214844 28.277344 40.382812 28.488281 40.382812 C 28.597656 40.375 28.695312 40.328125 28.765625 40.25 C 28.839844 40.167969 28.875 40.0625 28.871094 39.957031 C 28.808594 39.320312 28.648438 38.695312 28.394531 38.105469 C 28.761719 38.003906 29.121094 37.863281 29.464844 37.6875 C 30.648438 38.867188 31.070312 39.566406 31.226562 39.941406 C 31.304688 40.148438 31.539062 40.253906 31.746094 40.171875 C 31.953125 40.09375 32.054688 39.859375 31.976562 39.652344 C 31.523438 38.742188 30.910156 37.925781 30.160156 37.246094 C 30.496094 36.984375 30.773438 36.652344 30.976562 36.273438 C 32.367188 36.15625 33.5625 35.589844 34.429688 33.265625 C 34.679688 32.308594 34.796875 31.324219 34.777344 30.335938 C 38.136719 30.652344 40.488281 31.070312 41.589844 31.5625 C 41.722656 31.632812 41.886719 31.621094 42.011719 31.535156 C 42.132812 31.449219 42.199219 31.300781 42.179688 31.152344 C 42.15625 31 42.054688 30.875 41.914062 30.824219 C 40.722656 30.285156 38.378906 29.871094 34.949219 29.542969 L 35.378906 29.242188 L 35.542969 29.125 C 38.757812 29.285156 45.292969 29.722656 47.554688 30.738281 C 47.75 30.808594 47.96875 30.710938 48.054688 30.519531 C 48.136719 30.328125 48.058594 30.101562 47.875 30 C 45.699219 29.042969 40.046875 28.59375 36.589844 28.386719 C 36.792969 28.234375 36.988281 28.078125 37.183594 27.914062 C 41.617188 27.941406 44.683594 28.222656 46.070312 28.726562 C 46.277344 28.796875 46.5 28.6875 46.574219 28.480469 C 46.648438 28.277344 46.542969 28.046875 46.34375 27.96875 C 44.949219 27.464844 42.160156 27.179688 38.039062 27.117188 L 38.386719 26.746094 L 38.523438 26.746094 C 41.816406 26.582031 47.675781 26.402344 49.867188 27.101562 C 50.09375 27.171875 50.335938 27.042969 50.40625 26.816406 C 50.476562 26.585938 50.347656 26.34375 50.117188 26.273438 Z M 27.621094 36.445312 C 27.511719 36.253906 27.265625 36.1875 27.074219 36.296875 C 26.878906 36.410156 26.8125 36.65625 26.925781 36.847656 C 27.011719 36.992188 27.132812 37.226562 27.269531 37.492188 C 26.339844 37.628906 25.398438 37.628906 24.472656 37.492188 C 24.660156 37.113281 24.808594 36.855469 24.816406 36.847656 C 24.925781 36.65625 24.859375 36.410156 24.667969 36.296875 C 24.476562 36.1875 24.230469 36.253906 24.117188 36.445312 C 24.117188 36.476562 23.894531 36.835938 23.652344 37.339844 C 22.921875 37.179688 22.253906 36.804688 21.734375 36.261719 L 23.035156 36.261719 C 24.210938 36.257812 25.289062 35.609375 25.847656 34.574219 C 26.414062 35.613281 27.5 36.261719 28.683594 36.257812 L 29.984375 36.257812 C 29.464844 36.800781 28.796875 37.175781 28.066406 37.332031 C 27.824219 36.847656 27.621094 36.492188 27.601562 36.457031 Z M 36.78125 27.160156 L 36.738281 27.195312 C 36.289062 27.570312 35.789062 27.9375 35.300781 28.269531 L 34.886719 28.269531 C 34.953125 27.351562 35.125 26.523438 35.457031 26.273438 C 35.636719 26.136719 35.667969 25.878906 35.527344 25.699219 C 35.386719 25.519531 35.132812 25.488281 34.953125 25.628906 C 34.417969 26.074219 34.183594 27.050781 34.082031 28.226562 L 33.753906 28.226562 C 33.648438 28.222656 33.542969 28.257812 33.464844 28.332031 C 33.386719 28.40625 33.34375 28.511719 33.34375 28.621094 C 33.335938 28.84375 33.511719 29.027344 33.734375 29.035156 L 34.035156 29.035156 L 34.035156 29.429688 L 33.9375 29.429688 C 33.71875 29.414062 33.527344 29.578125 33.503906 29.796875 C 33.484375 30.019531 33.648438 30.214844 33.867188 30.234375 L 33.980469 30.234375 C 33.996094 31.148438 33.894531 32.058594 33.679688 32.949219 C 32.925781 34.964844 32.019531 35.390625 30.707031 35.457031 L 28.683594 35.457031 C 27.359375 35.453125 26.277344 34.386719 26.253906 33.058594 C 26.441406 32.878906 26.652344 32.726562 26.878906 32.605469 C 27.414062 32.261719 28.199219 31.789062 27.910156 31.105469 C 27.808594 30.867188 27.878906 30.753906 28.800781 30.125 L 29.136719 29.894531 C 29.539062 29.679688 29.800781 29.273438 29.832031 28.820312 C 29.808594 28.46875 29.621094 28.148438 29.324219 27.957031 C 29.144531 27.847656 28.90625 27.898438 28.789062 28.078125 C 28.683594 28.257812 28.730469 28.492188 28.902344 28.613281 C 28.945312 28.644531 29.039062 28.738281 29.046875 28.8125 C 29.050781 28.886719 28.957031 29.035156 28.691406 29.214844 L 28.359375 29.449219 C 27.488281 30.039062 26.800781 30.523438 27.183594 31.367188 C 27.140625 31.503906 26.707031 31.765625 26.46875 31.90625 C 26.257812 32.03125 26.058594 32.167969 25.863281 32.320312 C 25.671875 32.167969 25.46875 32.03125 25.257812 31.90625 C 25.003906 31.765625 24.765625 31.597656 24.546875 31.40625 C 24.925781 30.507812 24.234375 30.039062 23.367188 29.441406 L 23.035156 29.210938 C 22.777344 29.027344 22.683594 28.882812 22.683594 28.808594 C 22.683594 28.730469 22.777344 28.640625 22.820312 28.609375 C 22.996094 28.484375 23.039062 28.242188 22.925781 28.0625 C 22.808594 27.882812 22.574219 27.824219 22.386719 27.929688 C 22.09375 28.121094 21.90625 28.441406 21.878906 28.792969 C 21.914062 29.246094 22.175781 29.652344 22.574219 29.867188 L 22.914062 30.097656 C 23.839844 30.726562 23.902344 30.839844 23.800781 31.078125 C 23.511719 31.765625 24.277344 32.234375 24.835938 32.578125 C 25.050781 32.703125 25.261719 32.839844 25.457031 32.992188 C 25.453125 34.335938 24.363281 35.421875 23.027344 35.421875 L 22.191406 35.421875 C 20.199219 35.472656 18.976562 35.5 18.023438 32.917969 C 17.808594 32.027344 17.707031 31.113281 17.722656 30.199219 L 17.835938 30.199219 C 18.058594 30.179688 18.222656 29.984375 18.203125 29.761719 C 18.183594 29.539062 17.988281 29.375 17.765625 29.394531 L 17.691406 29.394531 L 17.691406 28.996094 L 17.992188 28.996094 C 18.210938 28.996094 18.390625 28.816406 18.390625 28.59375 C 18.390625 28.371094 18.210938 28.1875 17.992188 28.1875 L 17.664062 28.1875 C 17.5625 27.011719 17.351562 26.039062 16.789062 25.589844 C 16.601562 25.4375 16.328125 25.46875 16.175781 25.65625 C 16.023438 25.84375 16.050781 26.121094 16.238281 26.273438 C 16.570312 26.539062 16.726562 27.351562 16.808594 28.269531 L 16.296875 28.269531 C 15.84375 27.925781 15.386719 27.566406 14.96875 27.195312 C 14.945312 27.164062 14.917969 27.140625 14.890625 27.117188 C 14.75 26.996094 14.609375 26.871094 14.480469 26.746094 L 15.730469 26.828125 L 15.761719 26.828125 C 15.984375 26.835938 16.171875 26.664062 16.179688 26.441406 C 16.1875 26.21875 16.015625 26.03125 15.792969 26.023438 C 15.792969 26.023438 14.953125 25.957031 13.652344 25.886719 C 10.738281 22.558594 10.664062 19.324219 11.125 17.863281 C 11.125 17.820312 12.371094 13.765625 11.246094 11.984375 C 10.988281 11.5625 10.554688 11.28125 10.070312 11.214844 C 9.734375 11.171875 9.628906 10.675781 9.53125 9.984375 C 9.488281 9.644531 9.40625 9.3125 9.296875 8.992188 C 9.09375 8.578125 8.792969 8.21875 8.425781 7.945312 C 7.765625 7.425781 7.253906 6.746094 6.933594 5.96875 C 6.398438 4.699219 6.8125 4.003906 6.988281 3.777344 C 7.378906 3.742188 7.773438 3.84375 8.097656 4.066406 C 8.132812 4.097656 12.125 7.035156 13.875 7.035156 L 14.0625 7.035156 C 12.457031 8.191406 11.515625 9.671875 11.515625 11.117188 C 11.515625 11.339844 11.695312 11.519531 11.917969 11.519531 C 12.136719 11.519531 12.316406 11.339844 12.316406 11.117188 C 12.316406 9.605469 13.710938 7.949219 15.871094 6.890625 C 16.710938 6.765625 17.519531 6.492188 18.269531 6.089844 C 18.398438 6.019531 18.480469 5.886719 18.484375 5.742188 C 18.484375 5.59375 18.410156 5.457031 18.285156 5.382812 C 18.160156 5.3125 18.003906 5.308594 17.878906 5.382812 C 16.621094 6.007812 15.226562 6.300781 13.828125 6.234375 C 13.160156 6.234375 11.878906 5.582031 10.691406 4.863281 C 12.382812 5.625 14.367188 5.253906 15.671875 3.933594 C 17.8125 1.878906 19.148438 1.160156 25.847656 1.160156 C 32.550781 1.160156 33.882812 1.882812 36.027344 3.933594 C 36.839844 4.765625 37.953125 5.238281 39.117188 5.25 C 39.746094 5.242188 40.371094 5.117188 40.960938 4.882812 C 39.773438 5.597656 38.496094 6.246094 37.832031 6.246094 C 36.429688 6.308594 35.039062 6.015625 33.78125 5.394531 C 33.589844 5.292969 33.347656 5.363281 33.242188 5.554688 C 33.136719 5.746094 33.203125 5.988281 33.390625 6.097656 C 34.140625 6.507812 34.960938 6.785156 35.804688 6.910156 C 37.949219 7.988281 39.359375 9.601562 39.359375 11.140625 C 39.359375 11.363281 39.539062 11.542969 39.757812 11.542969 C 39.980469 11.542969 40.160156 11.363281 40.160156 11.140625 C 40.160156 9.6875 39.214844 8.207031 37.613281 7.058594 L 37.847656 7.058594 C 39.597656 7.058594 43.589844 4.121094 43.625 4.089844 C 43.949219 3.867188 44.339844 3.765625 44.730469 3.796875 C 44.90625 4.027344 45.292969 4.726562 44.785156 5.992188 C 44.464844 6.769531 43.953125 7.449219 43.292969 7.964844 C 42.925781 8.242188 42.625 8.601562 42.421875 9.015625 C 42.308594 9.335938 42.230469 9.667969 42.1875 10.003906 C 42.0625 10.71875 41.960938 11.191406 41.648438 11.234375 C 41.152344 11.296875 40.707031 11.585938 40.445312 12.015625 C 39.316406 13.796875 40.550781 17.855469 40.566406 17.894531 C 41.035156 19.363281 40.953125 22.59375 38.039062 25.917969 C 36.757812 25.988281 35.898438 26.054688 35.898438 26.054688 C 35.675781 26.0625 35.503906 26.25 35.511719 26.472656 C 35.519531 26.695312 35.707031 26.871094 35.929688 26.859375 L 35.960938 26.859375 L 37.210938 26.78125 C 37.097656 26.902344 36.929688 27.03125 36.78125 27.160156 Z M 36.78125 27.160156 "/>
<path style=" stroke:none;fill-rule:nonzero;fill:rgb(11.372549%,11.372549%,10.588235%);fill-opacity:1;" d="M 33.761719 13.652344 C 33.882812 13.648438 33.996094 13.59375 34.070312 13.5 L 35.78125 11.390625 C 35.875 11.28125 35.902344 11.125 35.851562 10.988281 C 35.804688 10.851562 35.683594 10.75 35.539062 10.730469 C 35.394531 10.707031 35.246094 10.765625 35.15625 10.882812 L 33.449219 12.988281 C 33.351562 13.109375 33.332031 13.277344 33.398438 13.414062 C 33.464844 13.554688 33.605469 13.644531 33.761719 13.644531 Z M 31.777344 12.566406 C 31.824219 12.574219 31.875 12.574219 31.921875 12.566406 C 32.089844 12.566406 32.238281 12.460938 32.296875 12.304688 L 33.054688 10.328125 C 33.132812 10.121094 33.03125 9.886719 32.824219 9.804688 C 32.617188 9.726562 32.382812 9.828125 32.304688 10.035156 L 31.546875 12.015625 C 31.5 12.117188 31.5 12.238281 31.542969 12.339844 C 31.585938 12.445312 31.671875 12.527344 31.777344 12.566406 Z M 30.132812 12.398438 C 30.242188 12.390625 30.339844 12.339844 30.410156 12.257812 C 30.476562 12.175781 30.511719 12.070312 30.503906 11.960938 L 30.371094 10.246094 C 30.351562 10.023438 30.15625 9.859375 29.933594 9.875 C 29.714844 9.894531 29.546875 10.089844 29.566406 10.3125 L 29.699219 12.027344 C 29.707031 12.132812 29.757812 12.234375 29.839844 12.304688 C 29.921875 12.371094 30.027344 12.40625 30.132812 12.398438 Z M 30.132812 12.398438 "/>
<path style=" stroke:none;fill-rule:nonzero;fill:rgb(11.372549%,11.372549%,10.588235%);fill-opacity:1;" d="M 20.054688 31.027344 C 20.054688 31.339844 19.800781 31.59375 19.492188 31.59375 C 19.179688 31.59375 18.929688 31.339844 18.929688 31.027344 C 18.929688 30.71875 19.179688 30.464844 19.492188 30.464844 C 19.800781 30.464844 20.054688 30.71875 20.054688 31.027344 Z M 20.054688 31.027344 "/>
<path style=" stroke:none;fill-rule:nonzero;fill:rgb(11.372549%,11.372549%,10.588235%);fill-opacity:1;" d="M 20.242188 32.949219 C 20.242188 33.261719 19.988281 33.515625 19.679688 33.515625 C 19.367188 33.515625 19.117188 33.261719 19.117188 32.949219 C 19.117188 32.636719 19.367188 32.382812 19.679688 32.382812 C 19.988281 32.382812 20.242188 32.636719 20.242188 32.949219 Z M 20.242188 32.949219 "/>
<path style=" stroke:none;fill-rule:nonzero;fill:rgb(11.372549%,11.372549%,10.588235%);fill-opacity:1;" d="M 21.707031 34.214844 C 21.707031 34.523438 21.457031 34.777344 21.144531 34.777344 C 20.835938 34.777344 20.582031 34.523438 20.582031 34.214844 C 20.582031 33.902344 20.835938 33.648438 21.144531 33.648438 C 21.457031 33.648438 21.707031 33.902344 21.707031 34.214844 Z M 21.707031 34.214844 "/>
<path style=" stroke:none;fill-rule:nonzero;fill:rgb(11.372549%,11.372549%,10.588235%);fill-opacity:1;" d="M 22.199219 32.25 C 22.199219 32.5625 21.949219 32.816406 21.636719 32.816406 C 21.328125 32.816406 21.074219 32.5625 21.074219 32.25 C 21.074219 31.9375 21.328125 31.683594 21.636719 31.683594 C 21.949219 31.683594 22.199219 31.9375 22.199219 32.25 Z M 22.199219 32.25 "/>
<path style=" stroke:none;fill-rule:nonzero;fill:rgb(11.372549%,11.372549%,10.588235%);fill-opacity:1;" d="M 23.765625 33.238281 C 23.765625 33.550781 23.511719 33.804688 23.203125 33.804688 C 22.890625 33.804688 22.640625 33.550781 22.640625 33.238281 C 22.640625 32.925781 22.890625 32.675781 23.203125 32.675781 C 23.511719 32.675781 23.765625 32.925781 23.765625 33.238281 Z M 23.765625 33.238281 "/>
<path style=" stroke:none;fill-rule:nonzero;fill:rgb(11.372549%,11.372549%,10.588235%);fill-opacity:1;" d="M 32.769531 31.027344 C 32.769531 31.339844 32.515625 31.59375 32.207031 31.59375 C 31.894531 31.59375 31.644531 31.339844 31.644531 31.027344 C 31.644531 30.71875 31.894531 30.464844 32.207031 30.464844 C 32.515625 30.464844 32.769531 30.71875 32.769531 31.027344 Z M 32.769531 31.027344 "/>
<path style=" stroke:none;fill-rule:nonzero;fill:rgb(11.372549%,11.372549%,10.588235%);fill-opacity:1;" d="M 32.582031 32.949219 C 32.582031 33.261719 32.328125 33.515625 32.019531 33.515625 C 31.707031 33.515625 31.457031 33.261719 31.457031 32.949219 C 31.457031 32.636719 31.707031 32.382812 32.019531 32.382812 C 32.328125 32.382812 32.582031 32.636719 32.582031 32.949219 Z M 32.582031 32.949219 "/>
<path style=" stroke:none;fill-rule:nonzero;fill:rgb(11.372549%,11.372549%,10.588235%);fill-opacity:1;" d="M 31.113281 34.214844 C 31.113281 34.523438 30.863281 34.777344 30.550781 34.777344 C 30.242188 34.777344 29.988281 34.523438 29.988281 34.214844 C 29.988281 33.902344 30.242188 33.648438 30.550781 33.648438 C 30.863281 33.648438 31.113281 33.902344 31.113281 34.214844 Z M 31.113281 34.214844 "/>
<path style=" stroke:none;fill-rule:nonzero;fill:rgb(11.372549%,11.372549%,10.588235%);fill-opacity:1;" d="M 30.621094 32.25 C 30.621094 32.5625 30.371094 32.816406 30.058594 32.816406 C 29.75 32.816406 29.496094 32.5625 29.496094 32.25 C 29.496094 31.9375 29.75 31.683594 30.058594 31.683594 C 30.371094 31.683594 30.621094 31.9375 30.621094 32.25 Z M 30.621094 32.25 "/>
<path style=" stroke:none;fill-rule:nonzero;fill:rgb(11.372549%,11.372549%,10.588235%);fill-opacity:1;" d="M 29.058594 33.238281 C 29.058594 33.550781 28.804688 33.804688 28.496094 33.804688 C 28.183594 33.804688 27.933594 33.550781 27.933594 33.238281 C 27.933594 32.925781 28.183594 32.675781 28.496094 32.675781 C 28.804688 32.675781 29.058594 32.925781 29.058594 33.238281 Z M 29.058594 33.238281 "/>
<path style=" stroke:none;fill-rule:nonzero;fill:rgb(11.372549%,11.372549%,10.588235%);fill-opacity:1;" d="M 27.753906 21.703125 C 27.648438 21.695312 27.542969 21.726562 27.460938 21.796875 C 27.378906 21.867188 27.328125 21.964844 27.320312 22.074219 C 27.167969 23.179688 26.652344 24.199219 25.847656 24.972656 C 25.046875 24.199219 24.53125 23.175781 24.386719 22.070312 C 24.367188 21.84375 24.175781 21.679688 23.953125 21.699219 C 23.730469 21.714844 23.566406 21.910156 23.582031 22.132812 C 23.777344 23.566406 24.488281 24.878906 25.582031 25.824219 C 25.652344 25.882812 25.742188 25.914062 25.832031 25.914062 C 25.925781 25.914062 26.011719 25.882812 26.085938 25.824219 C 27.175781 24.878906 27.886719 23.566406 28.082031 22.132812 C 28.097656 21.925781 27.957031 21.742188 27.753906 21.703125 Z M 20.691406 23.15625 C 20.5 23.050781 20.265625 23.117188 20.15625 23.300781 C 20.046875 23.488281 19.910156 23.6875 19.761719 23.898438 C 19.046875 24.941406 17.964844 26.523438 19.492188 28.199219 C 19.644531 28.328125 19.871094 28.324219 20.019531 28.191406 C 20.167969 28.054688 20.195312 27.828125 20.078125 27.660156 C 19.066406 26.558594 19.582031 25.609375 20.421875 24.382812 C 20.578125 24.148438 20.726562 23.933594 20.84375 23.730469 C 20.90625 23.632812 20.925781 23.519531 20.894531 23.40625 C 20.863281 23.296875 20.789062 23.207031 20.691406 23.15625 Z M 31.574219 23.300781 C 31.464844 23.105469 31.21875 23.039062 31.027344 23.152344 C 30.832031 23.261719 30.765625 23.511719 30.878906 23.703125 C 30.996094 23.90625 31.144531 24.121094 31.300781 24.355469 C 32.140625 25.582031 32.65625 26.53125 31.644531 27.636719 C 31.523438 27.734375 31.472656 27.898438 31.515625 28.050781 C 31.554688 28.199219 31.679688 28.316406 31.835938 28.339844 C 31.988281 28.367188 32.144531 28.300781 32.234375 28.171875 C 33.761719 26.511719 32.679688 24.945312 31.960938 23.871094 C 31.828125 23.6875 31.6875 23.488281 31.574219 23.300781 Z M 21.503906 28.425781 C 21.574219 28.214844 21.457031 27.984375 21.246094 27.917969 C 21.03125 27.847656 20.804688 27.964844 20.738281 28.179688 C 20.429688 29.175781 20.855469 30.257812 21.761719 30.769531 C 21.953125 30.882812 22.199219 30.816406 22.3125 30.621094 C 22.421875 30.429688 22.355469 30.183594 22.164062 30.070312 C 21.585938 29.746094 21.308594 29.0625 21.503906 28.425781 Z M 29.929688 30.753906 C 30.835938 30.238281 31.261719 29.160156 30.953125 28.164062 C 30.886719 27.949219 30.660156 27.832031 30.445312 27.902344 C 30.234375 27.96875 30.121094 28.199219 30.1875 28.410156 C 30.375 29.039062 30.101562 29.71875 29.527344 30.039062 C 29.335938 30.152344 29.269531 30.398438 29.382812 30.589844 C 29.492188 30.785156 29.738281 30.851562 29.929688 30.738281 Z M 27.390625 28.507812 C 27 28.953125 26.4375 29.210938 25.847656 29.210938 C 25.253906 29.210938 24.691406 28.953125 24.300781 28.507812 C 24.152344 28.335938 23.894531 28.316406 23.722656 28.464844 C 23.550781 28.613281 23.53125 28.871094 23.679688 29.042969 C 24.21875 29.679688 25.011719 30.042969 25.84375 30.042969 C 26.675781 30.042969 27.464844 29.679688 28.007812 29.042969 C 28.15625 28.871094 28.136719 28.613281 27.964844 28.464844 C 27.792969 28.316406 27.535156 28.335938 27.386719 28.507812 Z M 15.410156 20.636719 C 15.28125 20.554688 15.121094 20.546875 14.988281 20.625 C 14.855469 20.699219 14.777344 20.839844 14.785156 20.992188 C 14.792969 21.144531 14.882812 21.28125 15.023438 21.34375 C 16.433594 22.121094 17.042969 23.273438 17.042969 23.6875 C 17.042969 23.910156 17.222656 24.089844 17.445312 24.089844 C 17.667969 24.089844 17.847656 23.910156 17.847656 23.6875 C 17.847656 22.855469 16.933594 21.480469 15.410156 20.636719 Z M 36.878906 20.800781 C 36.773438 20.609375 36.535156 20.539062 36.34375 20.636719 C 34.804688 21.480469 33.882812 22.855469 33.882812 23.691406 C 33.882812 23.914062 34.0625 24.097656 34.285156 24.097656 C 34.507812 24.097656 34.6875 23.914062 34.6875 23.691406 C 34.6875 23.277344 35.296875 22.121094 36.707031 21.347656 C 36.800781 21.296875 36.875 21.210938 36.90625 21.109375 C 36.9375 21.007812 36.929688 20.894531 36.878906 20.800781 Z M 36.878906 20.800781 "/>
<path style=" stroke:none;fill-rule:nonzero;fill:rgb(0%,0%,0%);fill-opacity:1;" d="M 62.136719 30.652344 L 61.648438 29.417969 L 59.777344 29.417969 L 59.289062 30.652344 L 58.976562 30.652344 L 60.539062 26.726562 L 60.890625 26.726562 L 62.449219 30.652344 Z M 59.886719 29.148438 L 61.542969 29.148438 L 60.859375 27.4375 L 60.714844 27.019531 L 60.710938 27.019531 L 60.566406 27.421875 Z M 67.546875 28.730469 L 69.152344 28.730469 L 69.152344 30.652344 L 68.914062 30.652344 L 68.902344 29.96875 C 68.796875 30.207031 68.628906 30.390625 68.402344 30.519531 C 68.175781 30.648438 67.894531 30.710938 67.558594 30.710938 C 67.203125 30.710938 66.890625 30.628906 66.628906 30.464844 C 66.359375 30.300781 66.152344 30.066406 66.007812 29.757812 C 65.867188 29.453125 65.792969 29.097656 65.792969 28.6875 C 65.792969 28.28125 65.867188 27.925781 66.019531 27.617188 C 66.164062 27.3125 66.371094 27.078125 66.640625 26.914062 C 66.90625 26.75 67.21875 26.667969 67.574219 26.667969 C 67.976562 26.667969 68.300781 26.746094 68.550781 26.90625 C 68.804688 27.0625 68.996094 27.304688 69.125 27.632812 L 68.847656 27.769531 C 68.757812 27.5 68.605469 27.292969 68.390625 27.152344 C 68.175781 27.007812 67.90625 26.9375 67.574219 26.9375 C 67.285156 26.9375 67.027344 27.007812 66.804688 27.152344 C 66.585938 27.292969 66.414062 27.496094 66.292969 27.757812 C 66.167969 28.023438 66.105469 28.332031 66.105469 28.6875 C 66.105469 29.234375 66.234375 29.660156 66.496094 29.972656 C 66.753906 30.285156 67.113281 30.4375 67.570312 30.4375 C 67.855469 30.4375 68.097656 30.382812 68.292969 30.269531 C 68.492188 30.15625 68.636719 30.007812 68.730469 29.824219 C 68.824219 29.640625 68.875 29.441406 68.875 29.226562 L 68.875 29.011719 L 67.546875 29.011719 Z M 73.460938 30.378906 L 75.925781 30.378906 L 75.925781 30.652344 L 73.164062 30.652344 L 73.164062 26.726562 L 75.832031 26.726562 L 75.832031 26.996094 L 73.460938 26.996094 L 73.460938 28.515625 L 75.335938 28.515625 L 75.335938 28.796875 L 73.460938 28.796875 Z M 82.75 26.726562 L 82.75 30.652344 L 82.382812 30.652344 L 80.308594 27.570312 L 80.023438 27.050781 L 80.015625 27.050781 L 80.035156 27.542969 L 80.035156 30.652344 L 79.746094 30.652344 L 79.746094 26.726562 L 80.125 26.726562 L 82.1875 29.800781 L 82.484375 30.328125 L 82.472656 29.835938 L 82.472656 26.726562 Z M 90.039062 29.65625 C 89.925781 29.992188 89.734375 30.25 89.460938 30.433594 C 89.183594 30.621094 88.855469 30.710938 88.476562 30.710938 C 88.121094 30.710938 87.808594 30.628906 87.535156 30.464844 C 87.269531 30.300781 87.0625 30.066406 86.914062 29.757812 C 86.769531 29.453125 86.699219 29.097656 86.699219 28.6875 C 86.699219 28.28125 86.769531 27.925781 86.914062 27.617188 C 87.0625 27.3125 87.269531 27.078125 87.535156 26.914062 C 87.808594 26.75 88.117188 26.667969 88.46875 26.667969 C 89.25 26.667969 89.753906 26.988281 89.988281 27.636719 L 89.695312 27.769531 C 89.605469 27.492188 89.460938 27.285156 89.257812 27.148438 C 89.058594 27.007812 88.800781 26.9375 88.484375 26.9375 C 88.195312 26.9375 87.9375 27.007812 87.714844 27.152344 C 87.492188 27.292969 87.316406 27.496094 87.195312 27.757812 C 87.074219 28.023438 87.011719 28.332031 87.011719 28.6875 C 87.011719 29.046875 87.074219 29.355469 87.195312 29.621094 C 87.3125 29.882812 87.480469 30.085938 87.703125 30.226562 C 87.921875 30.367188 88.179688 30.4375 88.476562 30.4375 C 88.792969 30.4375 89.058594 30.363281 89.28125 30.207031 C 89.5 30.050781 89.652344 29.832031 89.742188 29.546875 Z M 94.167969 30.378906 L 96.636719 30.378906 L 96.636719 30.652344 L 93.871094 30.652344 L 93.871094 26.726562 L 96.539062 26.726562 L 96.539062 26.996094 L 94.167969 26.996094 L 94.167969 28.515625 L 96.046875 28.515625 L 96.046875 28.796875 L 94.167969 28.796875 Z M 106.503906 26.726562 C 107.128906 26.726562 107.609375 26.890625 107.949219 27.222656 C 108.285156 27.554688 108.453125 28.035156 108.453125 28.660156 C 108.453125 29.300781 108.285156 29.796875 107.949219 30.136719 C 107.609375 30.480469 107.128906 30.652344 106.503906 30.652344 L 105.273438 30.652344 L 105.273438 26.726562 Z M 106.53125 30.378906 C 107.050781 30.378906 107.449219 30.230469 107.726562 29.933594 C 108.007812 29.640625 108.144531 29.214844 108.144531 28.660156 C 108.144531 28.125 108.007812 27.71875 107.726562 27.429688 C 107.449219 27.140625 107.050781 26.996094 106.53125 26.996094 L 105.570312 26.996094 L 105.570312 30.378906 Z M 112.703125 30.378906 L 115.167969 30.378906 L 115.167969 30.652344 L 112.40625 30.652344 L 112.40625 26.726562 L 115.078125 26.726562 L 115.078125 26.996094 L 112.703125 26.996094 L 112.703125 28.515625 L 114.578125 28.515625 L 114.578125 28.796875 L 112.703125 28.796875 Z M 125.742188 27.898438 L 124.957031 30.652344 L 124.589844 30.652344 L 123.371094 26.726562 L 123.691406 26.726562 L 124.773438 30.410156 L 125.796875 26.726562 L 126.140625 26.726562 L 127.164062 30.414062 L 128.261719 26.726562 L 128.566406 26.726562 L 127.34375 30.652344 L 126.980469 30.652344 L 126.1875 27.898438 L 125.972656 27.050781 L 125.964844 27.050781 Z M 132.613281 30.378906 L 135.085938 30.378906 L 135.085938 30.652344 L 132.316406 30.652344 L 132.316406 26.726562 L 134.992188 26.726562 L 134.992188 26.996094 L 132.613281 26.996094 L 132.613281 28.515625 L 134.492188 28.515625 L 134.492188 28.796875 L 132.613281 28.796875 Z M 138.90625 30.652344 L 138.90625 26.726562 L 140.285156 26.726562 C 140.714844 26.726562 141.035156 26.816406 141.246094 26.992188 C 141.453125 27.171875 141.558594 27.429688 141.558594 27.765625 C 141.558594 27.996094 141.496094 28.191406 141.371094 28.347656 C 141.25 28.507812 141.070312 28.609375 140.84375 28.660156 L 140.84375 28.664062 C 141.097656 28.703125 141.296875 28.804688 141.445312 28.972656 C 141.59375 29.140625 141.667969 29.347656 141.667969 29.59375 C 141.667969 29.929688 141.550781 30.191406 141.308594 30.375 C 141.070312 30.558594 140.726562 30.652344 140.285156 30.652344 Z M 139.203125 28.535156 L 140.292969 28.535156 C 140.929688 28.535156 141.246094 28.28125 141.246094 27.765625 C 141.246094 27.253906 140.929688 26.996094 140.292969 26.996094 L 139.203125 26.996094 Z M 139.203125 30.378906 L 140.34375 30.378906 C 140.675781 30.378906 140.929688 30.3125 141.097656 30.175781 C 141.265625 30.039062 141.351562 29.847656 141.351562 29.59375 C 141.351562 29.335938 141.265625 29.140625 141.097656 29.007812 C 140.929688 28.875 140.675781 28.808594 140.34375 28.808594 L 139.203125 28.808594 Z M 151.65625 26.726562 C 152.285156 26.726562 152.765625 26.890625 153.101562 27.222656 C 153.441406 27.554688 153.609375 28.035156 153.609375 28.660156 C 153.609375 29.300781 153.441406 29.796875 153.101562 30.136719 C 152.765625 30.480469 152.285156 30.652344 151.65625 30.652344 L 150.425781 30.652344 L 150.425781 26.726562 Z M 151.683594 30.378906 C 152.207031 30.378906 152.605469 30.230469 152.886719 29.933594 C 153.160156 29.640625 153.300781 29.214844 153.300781 28.660156 C 153.300781 28.125 153.160156 27.71875 152.886719 27.429688 C 152.605469 27.140625 152.207031 26.996094 151.683594 26.996094 L 150.722656 26.996094 L 150.722656 30.378906 Z M 157.855469 30.378906 L 160.328125 30.378906 L 160.328125 30.652344 L 157.558594 30.652344 L 157.558594 26.726562 L 160.230469 26.726562 L 160.230469 26.996094 L 157.855469 26.996094 L 157.855469 28.515625 L 159.734375 28.515625 L 159.734375 28.796875 L 157.855469 28.796875 Z M 165.355469 26.667969 C 166.089844 26.667969 166.582031 26.957031 166.832031 27.535156 L 166.578125 27.742188 C 166.476562 27.460938 166.328125 27.257812 166.132812 27.128906 C 165.9375 27.003906 165.679688 26.9375 165.363281 26.9375 C 165.132812 26.9375 164.929688 26.976562 164.761719 27.050781 C 164.59375 27.121094 164.464844 27.214844 164.375 27.339844 C 164.285156 27.460938 164.242188 27.601562 164.242188 27.753906 C 164.242188 27.90625 164.28125 28.027344 164.355469 28.128906 C 164.429688 28.226562 164.554688 28.3125 164.738281 28.382812 C 164.917969 28.449219 165.164062 28.511719 165.480469 28.570312 C 165.988281 28.65625 166.351562 28.785156 166.5625 28.953125 C 166.777344 29.117188 166.882812 29.347656 166.882812 29.640625 C 166.882812 29.851562 166.820312 30.035156 166.699219 30.203125 C 166.578125 30.363281 166.40625 30.488281 166.183594 30.574219 C 165.957031 30.664062 165.699219 30.710938 165.414062 30.710938 C 165.003906 30.710938 164.660156 30.628906 164.375 30.464844 C 164.09375 30.300781 163.898438 30.070312 163.796875 29.773438 L 164.058594 29.570312 C 164.136719 29.851562 164.296875 30.066406 164.535156 30.214844 C 164.773438 30.363281 165.070312 30.4375 165.421875 30.4375 C 165.761719 30.4375 166.035156 30.371094 166.25 30.230469 C 166.46875 30.09375 166.578125 29.902344 166.578125 29.65625 C 166.578125 29.449219 166.488281 29.28125 166.308594 29.160156 C 166.136719 29.035156 165.832031 28.9375 165.394531 28.863281 C 165.03125 28.796875 164.738281 28.71875 164.523438 28.628906 C 164.3125 28.539062 164.160156 28.425781 164.066406 28.289062 C 163.976562 28.15625 163.929688 27.988281 163.929688 27.785156 C 163.929688 27.582031 163.984375 27.398438 164.101562 27.226562 C 164.21875 27.054688 164.382812 26.917969 164.601562 26.820312 C 164.816406 26.71875 165.066406 26.667969 165.355469 26.667969 Z M 171.070312 26.726562 L 171.070312 30.652344 L 170.773438 30.652344 L 170.773438 26.726562 Z M 176.769531 28.730469 L 178.371094 28.730469 L 178.371094 30.652344 L 178.136719 30.652344 L 178.128906 29.96875 C 178.019531 30.207031 177.851562 30.390625 177.625 30.519531 C 177.398438 30.648438 177.117188 30.710938 176.78125 30.710938 C 176.425781 30.710938 176.113281 30.628906 175.847656 30.464844 C 175.582031 30.300781 175.378906 30.066406 175.234375 29.757812 C 175.089844 29.453125 175.019531 29.097656 175.019531 28.6875 C 175.019531 28.28125 175.089844 27.925781 175.238281 27.617188 C 175.386719 27.3125 175.597656 27.078125 175.863281 26.914062 C 176.132812 26.75 176.445312 26.667969 176.800781 26.667969 C 177.195312 26.667969 177.523438 26.746094 177.777344 26.90625 C 178.03125 27.0625 178.21875 27.304688 178.34375 27.632812 L 178.074219 27.769531 C 177.980469 27.5 177.828125 27.292969 177.617188 27.152344 C 177.398438 27.007812 177.125 26.9375 176.800781 26.9375 C 176.503906 26.9375 176.25 27.007812 176.027344 27.152344 C 175.808594 27.292969 175.636719 27.496094 175.511719 27.757812 C 175.390625 28.023438 175.332031 28.332031 175.332031 28.6875 C 175.332031 29.234375 175.460938 29.660156 175.71875 29.972656 C 175.976562 30.285156 176.335938 30.4375 176.792969 30.4375 C 177.078125 30.4375 177.316406 30.382812 177.515625 30.269531 C 177.710938 30.15625 177.859375 30.007812 177.953125 29.824219 C 178.050781 29.640625 178.097656 29.441406 178.097656 29.226562 L 178.097656 29.011719 L 176.769531 29.011719 Z M 185.386719 26.726562 L 185.386719 30.652344 L 185.019531 30.652344 L 182.945312 27.570312 L 182.660156 27.050781 L 182.652344 27.050781 L 182.667969 27.542969 L 182.667969 30.652344 L 182.382812 30.652344 L 182.382812 26.726562 L 182.757812 26.726562 L 184.824219 29.800781 L 185.121094 30.328125 L 185.109375 29.835938 L 185.109375 26.726562 Z M 185.386719 26.726562 "/>
</g>
</svg>
